<?xml version="1.0" standalone="no"?>
<!DOCTYPE svg PUBLIC "-//W3C//DTD SVG 20010904//EN"
 "http://www.w3.org/TR/2001/REC-SVG-20010904/DTD/svg10.dtd">
<svg version="1.0" xmlns="http://www.w3.org/2000/svg"
 width="256.000000pt" height="256.000000pt" viewBox="0 0 256.000000 256.000000"
 preserveAspectRatio="xMidYMid meet">

<g transform="translate(0.000000,256.000000) scale(0.100000,-0.100000)"
fill="#000000" stroke="none">
<path d="M1230 2400 c-18 -28 -54 -99 -80 -158 -99 -223 -144 -442 -90 -442
15 0 23 21 12 32 -25 25 59 300 149 486 32 67 59 124 59 127 0 18 -23 -2 -50
-45z"/>
<path d="M445 2404 c-38 -9 -109 -26 -157 -40 -112 -31 -145 -31 -151 -1 -3
20 -4 21 -12 3 -11 -26 6 -50 38 -54 15 -2 69 8 121 22 51 14 96 26 98 26 2 0
-28 -64 -67 -142 -75 -150 -116 -264 -139 -387 -15 -77 -13 -101 9 -101 8 0
14 21 18 58 18 167 183 559 246 583 13 5 65 15 116 21 83 11 95 10 119 -5 22
-15 26 -15 26 -3 0 9 -9 20 -19 26 -28 14 -164 11 -246 -6z"/>
<path d="M1906 2388 c-16 -25 -56 -121 -110 -265 l-28 -72 -24 16 c-32 20 -58
9 -122 -52 -26 -25 -76 -70 -111 -100 -70 -61 -85 -59 -75 7 5 28 12 37 41 47
64 23 98 122 45 129 -47 7 -107 -80 -118 -169 -5 -45 -3 -59 11 -72 28 -28 52
-20 122 44 l68 62 5 -51 c3 -28 11 -57 18 -64 20 -20 64 3 97 52 l30 45 -3
-105 c-3 -82 0 -109 12 -125 12 -16 17 -18 27 -7 10 9 10 12 1 12 -17 0 -15
149 3 248 19 99 44 176 102 315 32 75 42 112 35 119 -7 7 -15 3 -26 -14z
m-376 -314 c0 -15 -42 -73 -57 -78 -26 -10 -25 -1 7 42 27 37 50 54 50 36z
m211 -37 c9 -20 5 -34 -26 -89 -46 -84 -60 -97 -75 -68 -22 40 8 134 52 164
30 21 37 20 49 -7z"/>
<path d="M453 2328 c-65 -111 -204 -521 -184 -541 11 -11 31 -1 31 17 0 22 78
171 98 190 19 16 19 16 11 -26 -17 -89 17 -162 63 -137 23 13 13 32 -13 24
-17 -6 -19 -1 -19 46 0 29 5 79 12 111 7 31 9 60 6 64 -13 13 -47 -8 -73 -46
-16 -22 -30 -39 -32 -37 -5 6 78 236 111 310 28 61 20 78 -11 25z"/>
<path d="M837 2057 c-57 -109 -114 -190 -128 -182 -11 7 -3 59 18 119 17 51 1
71 -21 27 -9 -17 -21 -31 -26 -31 -5 0 -39 -27 -77 -60 -37 -33 -73 -60 -80
-60 -8 0 -13 14 -13 39 0 35 4 41 37 58 43 21 85 77 81 108 -2 13 -12 21 -29
23 -21 2 -35 -6 -63 -39 -40 -47 -56 -92 -56 -155 0 -84 51 -83 141 3 l58 55
3 -54 c3 -46 6 -53 26 -56 15 -2 33 7 54 30 37 39 37 39 -35 -126 -29 -65 -56
-119 -62 -121 -207 -51 -345 -136 -401 -247 -29 -58 -30 -97 -4 -131 75 -95
245 16 381 248 63 107 66 110 108 118 23 5 45 6 48 3 3 -2 -9 -42 -27 -87 -38
-99 -100 -311 -93 -321 8 -13 33 -9 33 6 0 17 73 163 97 194 18 22 18 20 15
-56 -3 -64 -1 -82 13 -96 20 -19 56 -18 63 3 3 10 -1 12 -16 9 -34 -9 -42 41
-21 145 14 69 8 92 -21 77 -11 -6 -31 -27 -45 -48 -35 -51 -32 -20 9 93 l32
90 81 12 c132 18 383 33 574 33 175 0 207 6 180 33 -13 13 -576 -8 -718 -26
-51 -7 -93 -10 -93 -6 0 4 9 29 20 55 11 26 19 49 16 51 -6 6 -45 -53 -57 -86
-6 -17 -18 -32 -27 -35 -32 -8 -92 -17 -92 -13 0 2 17 42 39 88 41 90 151 379
151 398 0 6 -6 11 -12 11 -7 0 -35 -42 -61 -93z m-237 9 c0 -17 -47 -76 -61
-76 -13 0 2 32 29 63 30 31 32 32 32 13z m34 -508 c-34 -67 -106 -171 -151
-220 -76 -80 -153 -109 -195 -71 -58 52 33 193 172 263 46 24 182 71 188 65 2
-2 -4 -18 -14 -37z"/>
<path d="M1172 2078 c6 -18 28 -21 28 -4 0 9 -7 16 -16 16 -9 0 -14 -5 -12
-12z"/>
<path d="M1377 2063 c-8 -10 -33 -51 -55 -91 -22 -41 -42 -70 -45 -65 -2 4 -8
36 -12 71 -13 114 -40 83 -29 -35 12 -135 42 -136 109 -3 25 50 54 98 65 107
10 9 17 20 14 25 -9 13 -30 9 -47 -9z"/>
<path d="M1154 2019 c-12 -20 -34 -113 -34 -146 0 -23 5 -33 15 -33 10 0 15
10 15 28 0 16 7 51 15 78 8 27 15 57 15 67 0 19 -15 23 -26 6z"/>
<path d="M1917 1849 c-78 -103 -196 -414 -205 -541 -5 -74 -4 -78 16 -78 18 0
20 5 15 33 -10 65 64 300 153 485 58 120 66 160 21 101z"/>
<path d="M2135 1806 c-13 -10 -31 -13 -52 -10 -29 6 -33 4 -33 -16 0 -35 18
-59 62 -81 48 -24 63 -16 73 41 5 27 2 42 -12 58 -16 21 -20 22 -38 8z m5 -61
c6 3 10 -1 10 -9 0 -20 -19 -20 -48 0 -31 21 -28 40 3 20 14 -9 30 -14 35 -11z"/>
<path d="M1946 1461 c-67 -118 -109 -171 -123 -157 -7 6 15 103 33 150 14 35
-20 11 -39 -28 -27 -57 -33 -119 -12 -139 23 -24 32 -22 71 17 19 19 34 31 33
28 0 -4 -17 -45 -37 -92 l-37 -85 -105 -7 c-202 -12 -340 -83 -340 -175 0 -68
51 -123 116 -123 52 0 152 59 228 133 40 40 84 87 99 106 l25 34 146 -13 c82
-7 146 -18 146 -23 0 -6 -24 -67 -54 -136 -29 -69 -66 -162 -82 -206 -15 -44
-28 -81 -30 -83 -3 -5 -108 -32 -111 -28 -5 5 42 136 82 228 38 89 44 136 10
85 -10 -16 -45 -92 -77 -170 -35 -84 -77 -165 -101 -197 -40 -52 -42 -54 -45
-28 -2 14 8 59 21 99 14 41 23 77 20 81 -8 14 -22 8 -28 -13 -6 -19 -8 -19
-24 -5 -27 25 -47 19 -84 -25 -56 -65 -70 -160 -25 -174 21 -7 66 18 75 42 4
11 9 6 17 -17 14 -43 30 -47 61 -16 14 14 25 24 25 23 0 -1 -14 -43 -31 -92
-36 -107 -79 -279 -79 -318 0 -23 4 -28 21 -25 16 2 40 35 89 122 107 186 131
285 79 332 -27 25 -24 30 25 43 24 6 50 13 58 16 13 5 12 -7 -5 -80 -14 -60
-17 -89 -9 -97 16 -16 32 0 32 32 0 49 68 268 138 443 l67 169 60 -7 c33 -3
88 -13 123 -21 35 -9 66 -14 68 -11 11 10 -112 48 -173 54 -69 6 -71 9 -37 75
17 32 18 48 3 48 -5 0 -21 -25 -34 -55 -17 -37 -30 -55 -42 -55 -13 1 -256 26
-281 30 -1 0 4 12 12 28 8 15 44 107 81 205 84 221 77 248 -19 78z m-136 -339
c0 -5 -33 -44 -74 -88 -76 -81 -181 -154 -224 -154 -54 0 -91 37 -92 91 0 49
45 89 133 118 90 30 257 51 257 33z m-95 -466 c-8 -43 -59 -116 -80 -116 -32
0 -9 80 40 138 33 39 49 31 40 -22z m156 -123 c8 -21 7 -42 -6 -88 -16 -58
-90 -212 -120 -251 -14 -18 -15 -17 -9 11 8 40 82 298 94 330 12 33 28 32 41
-2z"/>
<path d="M2173 1538 c-28 -37 -24 -132 7 -171 l18 -22 46 22 c45 22 86 71 86
104 0 8 -6 24 -14 34 -14 20 -15 20 -77 -13 -4 -1 -9 11 -12 28 -7 32 -36 41
-54 18z m22 -68 c-8 -48 3 -51 51 -15 52 40 72 30 34 -17 -27 -35 -79 -56 -91
-37 -13 20 -11 109 2 109 7 0 8 -14 4 -40z"/>
<path d="M1267 1490 c-26 -16 -47 -33 -47 -37 -1 -5 -12 -21 -25 -38 l-25 -30
16 48 c9 26 14 51 11 54 -11 10 -26 -8 -38 -45 -11 -35 -87 -144 -111 -158
-15 -10 -1 77 23 141 20 51 11 85 -12 47 -11 -17 -15 -18 -26 -6 -20 19 -36
18 -67 -7 -77 -61 -91 -218 -17 -194 11 3 29 17 40 30 l19 25 6 -30 c9 -46 34
-49 69 -10 35 39 35 39 -23 -116 -64 -172 -89 -294 -60 -294 16 0 29 29 54
125 38 141 65 222 93 278 20 41 26 46 43 37 56 -30 134 14 171 95 24 52 24 70
-1 95 -27 27 -38 25 -93 -10z m75 -31 c-6 -52 -87 -139 -129 -139 -18 0 -8 56
17 87 28 36 91 84 105 80 5 -3 9 -15 7 -28z m-322 -29 c0 -31 -23 -81 -55
-118 -55 -66 -59 7 -5 92 31 48 60 61 60 26z"/>
<path d="M1540 1512 c-36 -17 -70 -46 -95 -83 -16 -21 -30 -38 -31 -36 -2 2 4
22 13 45 16 42 12 65 -8 45 -11 -11 -129 -336 -164 -453 -30 -101 -35 -133
-25 -150 18 -28 36 12 79 168 22 84 55 180 71 213 27 52 33 58 50 49 56 -30
134 14 171 95 24 52 24 70 -1 95 -21 21 -34 23 -60 12z m42 -53 c-7 -52 -88
-139 -129 -139 -20 0 -9 53 18 90 27 36 88 82 104 77 5 -2 9 -15 7 -28z"/>
<path d="M1666 1511 c-7 -10 18 -34 27 -25 7 8 -3 34 -13 34 -5 0 -11 -4 -14
-9z"/>
<path d="M1635 1410 c-21 -63 -25 -141 -7 -147 7 -3 12 4 12 19 0 13 9 55 19
95 10 40 16 74 13 77 -13 13 -21 3 -37 -44z"/>
<path d="M475 1110 c-3 -5 -19 -7 -35 -3 -22 4 -31 1 -36 -11 -11 -28 24 -56
68 -56 44 0 54 14 39 53 -11 28 -25 35 -36 17z"/>
<path d="M654 1016 c-9 -35 21 -83 66 -106 l39 -20 16 24 c22 34 30 93 15 111
-16 19 -25 19 -43 0 -13 -13 -16 -13 -27 0 -20 24 -59 19 -66 -9z m61 -33 l18
-26 18 24 c21 27 24 16 8 -30 -6 -17 -17 -31 -24 -31 -18 0 -55 48 -55 71 0
27 15 23 35 -8z"/>
<path d="M406 868 c-18 -25 -20 -64 -7 -120 9 -40 49 -97 68 -97 6 -1 37 23
68 53 50 47 56 57 53 87 -2 29 -7 35 -30 37 -15 2 -36 -1 -46 -7 -17 -9 -21
-5 -35 29 -18 46 -47 53 -71 18z m50 -79 c-3 -20 -3 -39 1 -42 3 -4 24 7 46
23 45 33 57 37 57 18 0 -13 -89 -108 -102 -108 -27 0 -54 151 -31 174 15 15
34 -29 29 -65z"/>
<path d="M807 741 c-34 -37 -67 -119 -67 -163 0 -36 19 -58 50 -58 21 0 45 15
88 55 33 30 62 55 65 55 3 0 9 -20 12 -43 15 -98 45 -91 107 27 26 48 55 97
64 107 13 14 15 22 7 30 -17 17 -55 -26 -99 -112 l-38 -74 -11 75 c-10 72 -25
94 -35 51 -5 -21 -145 -151 -162 -151 -5 0 -8 21 -6 48 3 39 6 47 25 50 26 4
72 48 84 80 11 29 -5 62 -30 62 -10 0 -35 -18 -54 -39z m63 -1 c0 -6 -16 -27
-35 -48 -42 -45 -50 -21 -9 27 26 31 44 40 44 21z"/>
<path d="M1203 765 c-37 -26 -74 -99 -80 -159 -10 -102 35 -115 123 -35 31 28
57 49 59 47 2 -2 0 -20 -5 -41 -14 -64 22 -63 40 2 19 73 81 142 100 111 5 -8
12 -11 17 -7 11 12 -12 42 -35 45 -22 3 -51 -17 -185 -131 -37 -32 -72 -55
-78 -52 -11 7 -12 65 -1 80 4 6 20 15 37 20 60 20 100 126 50 133 -11 1 -30
-4 -42 -13z m32 -42 c-20 -32 -56 -66 -63 -59 -6 7 36 74 51 80 26 10 29 5 12
-21z"/>
<path d="M2133 765 c-37 -26 -74 -99 -80 -159 -10 -102 35 -115 123 -35 31 28
57 49 59 47 2 -2 0 -20 -5 -41 -14 -64 22 -63 40 2 19 73 81 142 100 111 5 -8
12 -11 17 -7 11 12 -12 42 -35 45 -22 3 -51 -17 -185 -131 -37 -32 -72 -55
-78 -52 -11 7 -12 65 -1 80 4 6 20 15 37 20 60 20 100 126 50 133 -11 1 -30
-4 -42 -13z m32 -42 c-20 -32 -56 -66 -63 -59 -6 7 36 74 51 80 26 10 29 5 12
-21z"/>
</g>
</svg>
